{"accessors" : [{"bufferView" : 0, "byteOffset" : 0, "componentType" : 5123, "count" : 2280, "type" : "SCALAR", "max" : [1898], "min" : [0]}, {"bufferView" : 1, "byteOffset" : 0, "componentType" : 5126, "count" : 1899, "type" : "VEC3", "max" : [-4.808015823364258, 8.214256286621094, 0.9265140295028687], "min" : [-4.876133918762207, 8.082382202148438, 0.8520600199699402], "name" : "POSITION"}, {"bufferView" : 1, "byteOffset" : 12, "componentType" : 5126, "count" : 1899, "type" : "VEC2", "max" : [1, -0], "min" : [0, -1], "name" : "TEXCOORD_0"}, {"bufferView" : 1, "byteOffset" : 20, "componentType" : 5126, "count" : 1899, "type" : "VEC3", "max" : [0.9954932332038879, 0.9925470948219299, 0.9954139590263367], "min" : [-0.9954930543899536, -0.9925383925437927, -0.9954139590263367], "name" : "NORMAL"}, {"bufferView" : 0, "byteOffset" : 4560, "componentType" : 5123, "count" : 2280, "type" : "SCALAR", "max" : [1898], "min" : [0]}, {"bufferView" : 2, "byteOffset" : 0, "componentType" : 5126, "count" : 1899, "type" : "VEC3", "max" : [-4.604595184326172, 8.214256286621094, 0.945900022983551], "min" : [-4.6727118492126465, 8.082382202148438, 0.8714460134506226], "name" : "POSITION"}, {"bufferView" : 2, "byteOffset" : 12, "componentType" : 5126, "count" : 1899, "type" : "VEC2", "max" : [1, -0], "min" : [0, -1], "name" : "TEXCOORD_0"}, {"bufferView" : 2, "byteOffset" : 20, "componentType" : 5126, "count" : 1899, "type" : "VEC3", "max" : [0.9954932332038879, 0.9925467371940613, 0.9954144358634949], "min" : [-0.9954935312271118, -0.9925383925437927, -0.9954141974449158], "name" : "NORMAL"}, {"bufferView" : 0, "byteOffset" : 9120, "componentType" : 5123, "count" : 11904, "type" : "SCALAR", "max" : [9907], "min" : [0]}, {"bufferView" : 3, "byteOffset" : 0, "componentType" : 5126, "count" : 9908, "type" : "VEC3", "max" : [-2.8657960891723633, 14.03333854675293, -12.161763191223145], "min" : [-10.494729042053223, 0.15972000360488892, -19.227256774902344], "name" : "POSITION"}, {"bufferView" : 3, "byteOffset" : 12, "componentType" : 5126, "count" : 9908, "type" : "VEC2", "max" : [0.9443939924240112, -0.04380299896001816], "min" : [0.07026799768209457, -0.8238580226898193], "name" : "TEXCOORD_0"}, {"bufferView" : 3, "byteOffset" : 20, "componentType" : 5126, "count" : 9908, "type" : "VEC3", "max" : [0.9993179440498352, 1.0000044107437134, 0.9993249773979187], "min" : [-0.9993177056312561, -1.0000044107437134, -0.9993246793746948], "name" : "NORMAL"}, {"bufferView" : 0, "byteOffset" : 32928, "componentType" : 5123, "count" : 16512, "type" : "SCALAR", "max" : [13721], "min" : [0]}, {"bufferView" : 4, "byteOffset" : 0, "componentType" : 5126, "count" : 13722, "type" : "VEC3", "max" : [-4.032371997833252, 8.446209907531738, 1.0709949731826782], "min" : [-5.350010871887207, 7.63184118270874, 0.15759800374507904], "name" : "POSITION"}, {"bufferView" : 4, "byteOffset" : 12, "componentType" : 5126, "count" : 13722, "type" : "VEC2", "max" : [0.9561840295791626, -0.04485899955034256], "min" : [0.0430230014026165, -0.9083989858627319], "name" : "TEXCOORD_0"}, {"bufferView" : 4, "byteOffset" : 20, "componentType" : 5126, "count" : 13722, "type" : "VEC3", "max" : [0.9889807105064392, 1.0000044107437134, 0.9919514656066895], "min" : [-0.9882415533065796, -1.0000044107437134, -0.9993179440498352], "name" : "NORMAL"}], "asset" : {"generator" : "Aspose.3D 21.11", "version" : "2.0"}, "buffers" : [{"uri" : "data:application/octet-stream;base64,", "byteLength" : 1121204}], "bufferViews" : [{"buffer" : 0, "byteOffset" : 0, "byteLength" : 65952, "target" : 34963}, {"buffer" : 0, "byteOffset" : 65956, "byteLength" : 72960, "byteStride" : 32, "target" : 34962}, {"buffer" : 0, "byteOffset" : 138920, "byteLength" : 72960, "byteStride" : 32, "target" : 34962}, {"buffer" : 0, "byteOffset" : 211884, "byteLength" : 380928, "byteStride" : 32, "target" : 34962}, {"buffer" : 0, "byteOffset" : 592816, "byteLength" : 528384, "byteStride" : 32, "target" : 34962}], "materials" : [{"name" : "", "pbrMetallicRoughness" : {"baseColorFactor" : [0, 0, 0, 1], "metallicFactor" : 0, "roughnessFactor" : 0}, "emissiveFactor" : [0, 0, 0], "alphaMode" : "OPAQUE", "doubleSided" : false}, {"name" : "", "pbrMetallicRoughness" : {"baseColorFactor" : [0, 0, 0, 1], "metallicFactor" : 0, "roughnessFactor" : 0}, "emissiveFactor" : [0, 0, 0], "alphaMode" : "OPAQUE", "doubleSided" : false}, {"name" : "", "pbrMetallicRoughness" : {"baseColorFactor" : [0.03, 0.07, 0.01, 1], "metallicFactor" : 0, "roughnessFactor" : 0}, "emissiveFactor" : [0, 0, 0], "alphaMode" : "OPAQUE", "doubleSided" : false}, {"name" : "", "pbrMetallicRoughness" : {"baseColorFactor" : [0.5, 0.22, 0.01, 1], "metallicFactor" : 0, "roughnessFactor" : 0}, "emissiveFactor" : [0, 0, 0], "alphaMode" : "OPAQUE", "doubleSided" : false}], "meshes" : [{"primitives" : [{"attributes" : {"POSITION" : 1, "TEXCOORD_0" : 2, "NORMAL" : 3}, "indices" : 0, "material" : 0, "mode" : 4}], "name" : ""}, {"primitives" : [{"attributes" : {"POSITION" : 5, "TEXCOORD_0" : 6, "NORMAL" : 7}, "indices" : 4, "material" : 1, "mode" : 4}], "name" : ""}, {"primitives" : [{"attributes" : {"POSITION" : 9, "TEXCOORD_0" : 10, "NORMAL" : 11}, "indices" : 8, "material" : 2, "mode" : 4}], "name" : ""}, {"primitives" : [{"attributes" : {"POSITION" : 13, "TEXCOORD_0" : 14, "NORMAL" : 15}, "indices" : 12, "material" : 3, "mode" : 4}], "name" : ""}], "nodes" : [{"mesh" : 0, "name" : "polySurface26 polySurface1"}, {"mesh" : 1, "name" : "polySurface1 polySurface25"}, {"mesh" : 2, "name" : "polySurface35 polySurface31"}, {"mesh" : 3, "name" : "polySurface1 polySurface20"}], "scene" : 0, "scenes" : [{"nodes" : [0, 1, 2, 3]}]}