{"accessors" : [{"bufferView" : 0, "byteOffset" : 0, "componentType" : 5123, "count" : 11904, "type" : "SCALAR", "max" : [9907], "min" : [0]}, {"bufferView" : 1, "byteOffset" : 0, "componentType" : 5126, "count" : 9908, "type" : "VEC3", "max" : [-2.8657960891723633, 14.03333854675293, -12.161763191223145], "min" : [-10.494729042053223, 0.15972000360488892, -19.227256774902344], "name" : "POSITION"}, {"bufferView" : 1, "byteOffset" : 12, "componentType" : 5126, "count" : 9908, "type" : "VEC2", "max" : [0.9443939924240112, -0.04380299896001816], "min" : [0.07026799768209457, -0.8238580226898193], "name" : "TEXCOORD_0"}, {"bufferView" : 1, "byteOffset" : 20, "componentType" : 5126, "count" : 9908, "type" : "VEC3", "max" : [0.9993179440498352, 1.0000044107437134, 0.9993249773979187], "min" : [-0.9993177056312561, -1.0000044107437134, -0.9993246793746948], "name" : "NORMAL"}, {"bufferView" : 0, "byteOffset" : 23808, "componentType" : 5123, "count" : 1056, "type" : "SCALAR", "max" : [874], "min" : [0]}, {"bufferView" : 2, "byteOffset" : 0, "componentType" : 5126, "count" : 875, "type" : "VEC3", "max" : [-11.640007019042969, 5.051715850830078, -6.042284965515137], "min" : [-14.07985782623291, 0.07433400303125381, -8.368792533874512], "name" : "POSITION"}, {"bufferView" : 2, "byteOffset" : 12, "componentType" : 5126, "count" : 875, "type" : "VEC2", "max" : [0.7774779796600342, -0.10971499979496002], "min" : [0.12127099931240082, -0.30223599076271057], "name" : "TEXCOORD_0"}, {"bufferView" : 2, "byteOffset" : 20, "componentType" : 5126, "count" : 875, "type" : "VEC3", "max" : [0.9915544986724854, -0.004537018947303295, 0.9917894005775452], "min" : [-0.9915432929992676, -1.0000044107437134, -0.9917894005775452], "name" : "NORMAL"}, {"bufferView" : 0, "byteOffset" : 25920, "componentType" : 5123, "count" : 2976, "type" : "SCALAR", "max" : [2474], "min" : [0]}, {"bufferView" : 3, "byteOffset" : 0, "componentType" : 5126, "count" : 2475, "type" : "VEC3", "max" : [-7.088870048522949, 14.834035873413086, -2.966062068939209], "min" : [-18.630990982055664, 0.15972000360488892, -11.44502067565918], "name" : "POSITION"}, {"bufferView" : 3, "byteOffset" : 12, "componentType" : 5126, "count" : 2475, "type" : "VEC2", "max" : [0.969523012638092, -0.10971499979496002], "min" : [0.04567699879407883, -0.9123070240020752], "name" : "TEXCOORD_0"}, {"bufferView" : 3, "byteOffset" : 20, "componentType" : 5126, "count" : 2475, "type" : "VEC3", "max" : [0.9998442530632019, 1.0000044107437134, 0.9992941617965698], "min" : [-0.9998441934585571, -1.0000044107437134, -0.9992941617965698], "name" : "NORMAL"}, {"bufferView" : 0, "byteOffset" : 31872, "componentType" : 5123, "count" : 600, "type" : "SCALAR", "max" : [497], "min" : [0]}, {"bufferView" : 4, "byteOffset" : 0, "componentType" : 5126, "count" : 498, "type" : "VEC3", "max" : [17.528072357177734, 0, 20.82494354248047], "min" : [-22.72058868408203, 0, -19.423717498779297], "name" : "POSITION"}, {"bufferView" : 4, "byteOffset" : 12, "componentType" : 5126, "count" : 498, "type" : "VEC2", "max" : [1, -0], "min" : [0, -1], "name" : "TEXCOORD_0"}, {"bufferView" : 4, "byteOffset" : 20, "componentType" : 5126, "count" : 498, "type" : "VEC3", "max" : [0, 1.0000044107437134, 0], "min" : [0, 1.0000044107437134, 0], "name" : "NORMAL"}, {"bufferView" : 0, "byteOffset" : 33072, "componentType" : 5123, "count" : 3936, "type" : "SCALAR", "max" : [3269], "min" : [0]}, {"bufferView" : 5, "byteOffset" : 0, "componentType" : 5126, "count" : 3270, "type" : "VEC3", "max" : [-5.610024929046631, 4.96952486038208, -14.681146621704102], "min" : [-7.7504987716674805, 0.10140500217676163, -16.707870483398438], "name" : "POSITION"}, {"bufferView" : 5, "byteOffset" : 12, "componentType" : 5126, "count" : 3270, "type" : "VEC2", "max" : [0.7474030256271362, -0.11186700314283371], "min" : [0.18676699697971344, -0.6901220083236694], "name" : "TEXCOORD_0"}, {"bufferView" : 5, "byteOffset" : 20, "componentType" : 5126, "count" : 3270, "type" : "VEC3", "max" : [0.9993354678153992, -0.0008980042766779661, 0.99934983253479], "min" : [-0.999335527420044, -1.0000044107437134, -0.9993500113487244], "name" : "NORMAL"}, {"bufferView" : 0, "byteOffset" : 40944, "componentType" : 5123, "count" : 3936, "type" : "SCALAR", "max" : [3269], "min" : [0]}, {"bufferView" : 6, "byteOffset" : 0, "componentType" : 5126, "count" : 3270, "type" : "VEC3", "max" : [7.6529860496521, 4.96829080581665, 2.3942830562591553], "min" : [5.505399227142334, 0.09853299707174301, 0.3600269854068756], "name" : "POSITION"}, {"bufferView" : 6, "byteOffset" : 12, "componentType" : 5126, "count" : 3270, "type" : "VEC2", "max" : [0.7474030256271362, -0.11186700314283371], "min" : [0.18676699697971344, -0.6901220083236694], "name" : "TEXCOORD_0"}, {"bufferView" : 6, "byteOffset" : 20, "componentType" : 5126, "count" : 3270, "type" : "VEC3", "max" : [0.9993355870246887, -0.0008980039856396616, 0.9993498921394348], "min" : [-0.9993357062339783, -1.0000044107437134, -0.9993503093719482], "name" : "NORMAL"}, {"bufferView" : 0, "byteOffset" : 48816, "componentType" : 5123, "count" : 11904, "type" : "SCALAR", "max" : [9907], "min" : [0]}, {"bufferView" : 7, "byteOffset" : 0, "componentType" : 5126, "count" : 9908, "type" : "VEC3", "max" : [10.393657684326172, 14.035162925720215, 4.909900188446045], "min" : [2.7647271156311035, 0.16154499351978302, -2.155592918395996], "name" : "POSITION"}, {"bufferView" : 7, "byteOffset" : 12, "componentType" : 5126, "count" : 9908, "type" : "VEC2", "max" : [0.9443939924240112, -0.04380299896001816], "min" : [0.07026799768209457, -0.8238580226898193], "name" : "TEXCOORD_0"}, {"bufferView" : 7, "byteOffset" : 20, "componentType" : 5126, "count" : 9908, "type" : "VEC3", "max" : [0.9993178844451904, 1.0000044107437134, 0.9993250370025635], "min" : [-0.9993179440498352, -1.0000044107437134, -0.9993245601654053], "name" : "NORMAL"}], "asset" : {"generator" : "Aspose.3D 21.11", "version" : "2.0"}, "buffers" : [{"uri" : "data:application/octet-stream;base64,", "byteLength" : 1234640}], "bufferViews" : [{"buffer" : 0, "byteOffset" : 0, "byteLength" : 72624, "target" : 34963}, {"buffer" : 0, "byteOffset" : 72628, "byteLength" : 380928, "byteStride" : 32, "target" : 34962}, {"buffer" : 0, "byteOffset" : 453560, "byteLength" : 33792, "byteStride" : 32, "target" : 34962}, {"buffer" : 0, "byteOffset" : 487356, "byteLength" : 95232, "byteStride" : 32, "target" : 34962}, {"buffer" : 0, "byteOffset" : 582592, "byteLength" : 19200, "byteStride" : 32, "target" : 34962}, {"buffer" : 0, "byteOffset" : 601796, "byteLength" : 125952, "byteStride" : 32, "target" : 34962}, {"buffer" : 0, "byteOffset" : 727752, "byteLength" : 125952, "byteStride" : 32, "target" : 34962}, {"buffer" : 0, "byteOffset" : 853708, "byteLength" : 380928, "byteStride" : 32, "target" : 34962}], "materials" : [{"name" : "", "pbrMetallicRoughness" : {"baseColorFactor" : [0.03, 0.07, 0.01, 1], "metallicFactor" : 0, "roughnessFactor" : 0}, "emissiveFactor" : [0, 0, 0], "alphaMode" : "OPAQUE", "doubleSided" : false}, {"name" : "", "pbrMetallicRoughness" : {"baseColorFactor" : [0.11, 0.03, 0, 1], "metallicFactor" : 0, "roughnessFactor" : 0}, "emissiveFactor" : [0, 0, 0], "alphaMode" : "OPAQUE", "doubleSided" : false}, {"name" : "", "pbrMetallicRoughness" : {"baseColorFactor" : [0, 0.46, 0, 1], "metallicFactor" : 0, "roughnessFactor" : 0}, "emissiveFactor" : [0, 0, 0], "alphaMode" : "OPAQUE", "doubleSided" : false}, {"name" : "", "pbrMetallicRoughness" : {"baseColorFactor" : [0.03, 0.07, 0.01, 1], "metallicFactor" : 0, "roughnessFactor" : 0}, "emissiveFactor" : [0, 0, 0], "alphaMode" : "OPAQUE", "doubleSided" : false}, {"name" : "", "pbrMetallicRoughness" : {"baseColorFactor" : [0.11, 0.03, 0, 1], "metallicFactor" : 0, "roughnessFactor" : 0}, "emissiveFactor" : [0, 0, 0], "alphaMode" : "OPAQUE", "doubleSided" : false}, {"name" : "", "pbrMetallicRoughness" : {"baseColorFactor" : [0.11, 0.03, 0, 1], "metallicFactor" : 0, "roughnessFactor" : 0}, "emissiveFactor" : [0, 0, 0], "alphaMode" : "OPAQUE", "doubleSided" : false}, {"name" : "", "pbrMetallicRoughness" : {"baseColorFactor" : [0.03, 0.07, 0.01, 1], "metallicFactor" : 0, "roughnessFactor" : 0}, "emissiveFactor" : [0, 0, 0], "alphaMode" : "OPAQUE", "doubleSided" : false}], "meshes" : [{"primitives" : [{"attributes" : {"POSITION" : 1, "TEXCOORD_0" : 2, "NORMAL" : 3}, "indices" : 0, "material" : 0, "mode" : 4}], "name" : ""}, {"primitives" : [{"attributes" : {"POSITION" : 5, "TEXCOORD_0" : 6, "NORMAL" : 7}, "indices" : 4, "material" : 1, "mode" : 4}], "name" : ""}, {"primitives" : [{"attributes" : {"POSITION" : 9, "TEXCOORD_0" : 10, "NORMAL" : 11}, "indices" : 8, "material" : 2, "mode" : 4}], "name" : ""}, {"primitives" : [{"attributes" : {"POSITION" : 13, "TEXCOORD_0" : 14, "NORMAL" : 15}, "indices" : 12, "material" : 3, "mode" : 4}], "name" : ""}, {"primitives" : [{"attributes" : {"POSITION" : 17, "TEXCOORD_0" : 18, "NORMAL" : 19}, "indices" : 16, "material" : 4, "mode" : 4}], "name" : ""}, {"primitives" : [{"attributes" : {"POSITION" : 21, "TEXCOORD_0" : 22, "NORMAL" : 23}, "indices" : 20, "material" : 5, "mode" : 4}], "name" : ""}, {"primitives" : [{"attributes" : {"POSITION" : 25, "TEXCOORD_0" : 26, "NORMAL" : 27}, "indices" : 24, "material" : 6, "mode" : 4}], "name" : ""}], "nodes" : [{"mesh" : 0, "name" : "polySurface35 polySurface31"}, {"mesh" : 1, "name" : "polySurface31 polySurface37"}, {"mesh" : 2, "name" : "polySurface31 polySurface36"}, {"mesh" : 3, "name" : "polySurface31 polySurface38"}, {"mesh" : 4, "name" : "polySurface31 polySurface39"}, {"mesh" : 5, "name" : "polySurface31 polySurface43"}, {"mesh" : 6, "name" : "polySurface31 polySurface42"}], "scene" : 0, "scenes" : [{"nodes" : [0, 1, 2, 3, 4, 5, 6]}]}