{"accessors" : [{"bufferView" : 0, "byteOffset" : 0, "componentType" : 5123, "count" : 576, "type" : "SCALAR", "max" : [477], "min" : [0]}, {"bufferView" : 1, "byteOffset" : 0, "componentType" : 5126, "count" : 478, "type" : "VEC3", "max" : [127.50508117675781, 127.50508117675781, 127.50508880615234], "min" : [-127.50508117675781, -127.50508117675781, -127.50508117675781], "name" : "POSITION"}, {"bufferView" : 1, "byteOffset" : 12, "componentType" : 5126, "count" : 478, "type" : "VEC2", "max" : [0.875, -0], "min" : [0.125, -1], "name" : "TEXCOORD_0"}, {"bufferView" : 1, "byteOffset" : 20, "componentType" : 5126, "count" : 478, "type" : "VEC3", "max" : [1.0000044107437134, 1.0000044107437134, 1.0000044107437134], "min" : [-1.0000044107437134, -1.0000044107437134, -1.0000044107437134], "name" : "NORMAL"}], "asset" : {"generator" : "Aspose.3D 21.11", "version" : "2.0"}, "buffers" : [{"uri" : "data:application/octet-stream;base64,", "byteLength" : 19592}], "bufferViews" : [{"buffer" : 0, "byteOffset" : 0, "byteLength" : 1152, "target" : 34963}, {"buffer" : 0, "byteOffset" : 1156, "byteLength" : 18432, "byteStride" : 32, "target" : 34962}], "images" : [{"uri" : "cielito.jpg"}], "materials" : [{"name" : "", "pbrMetallicRoughness" : {"baseColorFactor" : [0, 0, 0, 1], "baseColorTexture" : {"index" : 0, "texCoord" : 0}, "metallicFactor" : 0, "roughnessFactor" : 0}, "emissiveFactor" : [0, 0, 0], "alphaMode" : "OPAQUE", "doubleSided" : false}], "meshes" : [{"primitives" : [{"attributes" : {"POSITION" : 1, "TEXCOORD_0" : 2, "NORMAL" : 3}, "indices" : 0, "material" : 0, "mode" : 4}], "name" : ""}], "nodes" : [{"mesh" : 0, "name" : "pCube2"}], "samplers" : [{"magFilter" : 9729, "minFilter" : 9729, "wrapS" : 10497, "wrapT" : 10497}], "scene" : 0, "scenes" : [{"nodes" : [0]}], "textures" : [{"sampler" : 0, "source" : 0}]}