{"accessors" : [{"bufferView" : 0, "byteOffset" : 0, "componentType" : 5123, "count" : 2976, "type" : "SCALAR", "max" : [2474], "min" : [0]}, {"bufferView" : 1, "byteOffset" : 0, "componentType" : 5126, "count" : 2475, "type" : "VEC3", "max" : [8.660614967346191, 14.834035873413086, -3.4145150184631348], "min" : [-2.8019440174102783, 0.15972000360488892, -11.973423957824707], "name" : "POSITION"}, {"bufferView" : 1, "byteOffset" : 12, "componentType" : 5126, "count" : 2475, "type" : "VEC2", "max" : [0.969523012638092, -0.10971499979496002], "min" : [0.04567699879407883, -0.9123070240020752], "name" : "TEXCOORD_0"}, {"bufferView" : 1, "byteOffset" : 20, "componentType" : 5126, "count" : 2475, "type" : "VEC3", "max" : [0.9997602701187134, 1.0000044107437134, 0.9979054927825928], "min" : [-0.9997602701187134, -1.0000044107437134, -0.9979054927825928], "name" : "NORMAL"}, {"bufferView" : 0, "byteOffset" : 5952, "componentType" : 5123, "count" : 600, "type" : "SCALAR", "max" : [497], "min" : [0]}, {"bufferView" : 2, "byteOffset" : 0, "componentType" : 5126, "count" : 498, "type" : "VEC3", "max" : [17.528072357177734, 0, 20.82494354248047], "min" : [-22.72058868408203, 0, -19.423717498779297], "name" : "POSITION"}, {"bufferView" : 2, "byteOffset" : 12, "componentType" : 5126, "count" : 498, "type" : "VEC2", "max" : [1, -0], "min" : [0, -1], "name" : "TEXCOORD_0"}, {"bufferView" : 2, "byteOffset" : 20, "componentType" : 5126, "count" : 498, "type" : "VEC3", "max" : [0, 1.0000044107437134, 0], "min" : [0, 1.0000044107437134, 0], "name" : "NORMAL"}, {"bufferView" : 0, "byteOffset" : 7152, "componentType" : 5123, "count" : 13056, "type" : "SCALAR", "max" : [10845], "min" : [0]}, {"bufferView" : 3, "byteOffset" : 0, "componentType" : 5126, "count" : 10846, "type" : "VEC3", "max" : [-4.240264892578125, 3.473551034927368, -0.5512359738349915], "min" : [-5.003097057342529, 2.695586919784546, -1.3140679597854614], "name" : "POSITION"}, {"bufferView" : 3, "byteOffset" : 12, "componentType" : 5126, "count" : 10846, "type" : "VEC2", "max" : [0.8816630244255066, -0.10680899769067764], "min" : [0.05300600081682205, -0.8931909799575806], "name" : "TEXCOORD_0"}, {"bufferView" : 3, "byteOffset" : 20, "componentType" : 5126, "count" : 10846, "type" : "VEC3", "max" : [0.9993180632591248, 1.0000044107437134, 0.9993178844451904], "min" : [-0.9993182420730591, -1.0000044107437134, -0.9993180632591248], "name" : "NORMAL"}, {"bufferView" : 0, "byteOffset" : 33264, "componentType" : 5123, "count" : 32640, "type" : "SCALAR", "max" : [27116], "min" : [0]}, {"bufferView" : 4, "byteOffset" : 0, "componentType" : 5126, "count" : 27117, "type" : "VEC3", "max" : [-1.9336780309677124, 10.689034461975098, 1.9613330364227295], "min" : [-7.51400899887085, -0.06957600265741348, -0.9324229955673218], "name" : "POSITION"}, {"bufferView" : 4, "byteOffset" : 12, "componentType" : 5126, "count" : 27117, "type" : "VEC2", "max" : [0.9491649866104126, -0.009487999603152275], "min" : [0.03408399969339371, -0.9735109806060791], "name" : "TEXCOORD_0"}, {"bufferView" : 4, "byteOffset" : 20, "componentType" : 5126, "count" : 27117, "type" : "VEC3", "max" : [0.9989326000213623, 1.0000044107437134, 0.9999409317970276], "min" : [-0.9997139573097229, -1.0000044107437134, -0.9999409317970276], "name" : "NORMAL"}, {"bufferView" : 0, "byteOffset" : 98544, "componentType" : 5123, "count" : 816, "type" : "SCALAR", "max" : [679], "min" : [0]}, {"bufferView" : 5, "byteOffset" : 0, "componentType" : 5126, "count" : 680, "type" : "VEC3", "max" : [-4.948406219482422, 7.04094123840332, 1.4622130393981934], "min" : [-5.385440826416016, 6.652935981750488, 1.173956036567688], "name" : "POSITION"}, {"bufferView" : 5, "byteOffset" : 12, "componentType" : 5126, "count" : 680, "type" : "VEC2", "max" : [1, -0], "min" : [0, -1], "name" : "TEXCOORD_0"}, {"bufferView" : 5, "byteOffset" : 20, "componentType" : 5126, "count" : 680, "type" : "VEC3", "max" : [0.9913197159767151, 0.9933483600616455, 0.9803305864334106], "min" : [-0.9913212060928345, -0.993349015712738, -0.9803302884101868], "name" : "NORMAL"}, {"bufferView" : 0, "byteOffset" : 100176, "componentType" : 5123, "count" : 816, "type" : "SCALAR", "max" : [679], "min" : [0]}, {"bufferView" : 6, "byteOffset" : 0, "componentType" : 5126, "count" : 680, "type" : "VEC3", "max" : [-4.093864917755127, 7.04094123840332, 1.5238889455795288], "min" : [-4.554555892944336, 6.652935981750488, 1.272902011871338], "name" : "POSITION"}, {"bufferView" : 6, "byteOffset" : 12, "componentType" : 5126, "count" : 680, "type" : "VEC2", "max" : [1, -0], "min" : [0, -1], "name" : "TEXCOORD_0"}, {"bufferView" : 6, "byteOffset" : 20, "componentType" : 5126, "count" : 680, "type" : "VEC3", "max" : [0.9909433126449585, 0.9933494925498962, 0.9809621572494507], "min" : [-0.9909444451332092, -0.9933493733406067, -0.9809617400169373], "name" : "NORMAL"}, {"bufferView" : 0, "byteOffset" : 101808, "componentType" : 5123, "count" : 816, "type" : "SCALAR", "max" : [679], "min" : [0]}, {"bufferView" : 7, "byteOffset" : 0, "componentType" : 5126, "count" : 680, "type" : "VEC3", "max" : [-4.604302883148193, 6.469454765319824, 1.5684700012207031], "min" : [-4.908023834228516, 6.286280155181885, 1.2647490501403809], "name" : "POSITION"}, {"bufferView" : 7, "byteOffset" : 12, "componentType" : 5126, "count" : 680, "type" : "VEC2", "max" : [1, -0], "min" : [0, -1], "name" : "TEXCOORD_0"}, {"bufferView" : 7, "byteOffset" : 20, "componentType" : 5126, "count" : 680, "type" : "VEC3", "max" : [0.966114342212677, 1.0000044107437134, 0.9661152958869934], "min" : [-0.9661204814910889, -1.0000044107437134, -0.9661153554916382], "name" : "NORMAL"}], "asset" : {"generator" : "Aspose.3D 21.11", "version" : "2.0"}, "buffers" : [{"uri" : "data:application/octet-stream;base64,", "byteLength" : 1758512}], "bufferViews" : [{"buffer" : 0, "byteOffset" : 0, "byteLength" : 103440, "target" : 34963}, {"buffer" : 0, "byteOffset" : 103444, "byteLength" : 95232, "byteStride" : 32, "target" : 34962}, {"buffer" : 0, "byteOffset" : 198680, "byteLength" : 19200, "byteStride" : 32, "target" : 34962}, {"buffer" : 0, "byteOffset" : 217884, "byteLength" : 417792, "byteStride" : 32, "target" : 34962}, {"buffer" : 0, "byteOffset" : 635680, "byteLength" : 1044480, "byteStride" : 32, "target" : 34962}, {"buffer" : 0, "byteOffset" : 1680164, "byteLength" : 26112, "byteStride" : 32, "target" : 34962}, {"buffer" : 0, "byteOffset" : 1706280, "byteLength" : 26112, "byteStride" : 32, "target" : 34962}, {"buffer" : 0, "byteOffset" : 1732396, "byteLength" : 26112, "byteStride" : 32, "target" : 34962}], "materials" : [{"name" : "", "pbrMetallicRoughness" : {"baseColorFactor" : [0, 0, 0, 1], "metallicFactor" : 0, "roughnessFactor" : 0}, "emissiveFactor" : [0, 0, 0], "alphaMode" : "OPAQUE", "doubleSided" : false}, {"name" : "", "pbrMetallicRoughness" : {"baseColorFactor" : [0.03, 0.07, 0.01, 1], "metallicFactor" : 0, "roughnessFactor" : 0}, "emissiveFactor" : [0, 0, 0], "alphaMode" : "OPAQUE", "doubleSided" : false}, {"name" : "", "pbrMetallicRoughness" : {"baseColorFactor" : [0, 0, 0, 1], "metallicFactor" : 0, "roughnessFactor" : 0}, "emissiveFactor" : [0, 0, 0], "alphaMode" : "OPAQUE", "doubleSided" : false}, {"name" : "", "pbrMetallicRoughness" : {"baseColorFactor" : [0.02, 0.17, 0.5, 1], "metallicFactor" : 0, "roughnessFactor" : 0}, "emissiveFactor" : [0, 0, 0], "alphaMode" : "OPAQUE", "doubleSided" : false}, {"name" : "", "pbrMetallicRoughness" : {"baseColorFactor" : [0, 0, 0, 1], "metallicFactor" : 0, "roughnessFactor" : 0}, "emissiveFactor" : [0, 0, 0], "alphaMode" : "OPAQUE", "doubleSided" : false}, {"name" : "", "pbrMetallicRoughness" : {"baseColorFactor" : [0, 0, 0, 1], "metallicFactor" : 0, "roughnessFactor" : 0}, "emissiveFactor" : [0, 0, 0], "alphaMode" : "OPAQUE", "doubleSided" : false}, {"name" : "", "pbrMetallicRoughness" : {"baseColorFactor" : [0, 0, 0, 1], "metallicFactor" : 0, "roughnessFactor" : 0}, "emissiveFactor" : [0, 0, 0], "alphaMode" : "OPAQUE", "doubleSided" : false}], "meshes" : [{"primitives" : [{"attributes" : {"POSITION" : 1, "TEXCOORD_0" : 2, "NORMAL" : 3}, "indices" : 0, "material" : 0, "mode" : 4}], "name" : ""}, {"primitives" : [{"attributes" : {"POSITION" : 5, "TEXCOORD_0" : 6, "NORMAL" : 7}, "indices" : 4, "material" : 1, "mode" : 4}], "name" : ""}, {"primitives" : [{"attributes" : {"POSITION" : 9, "TEXCOORD_0" : 10, "NORMAL" : 11}, "indices" : 8, "material" : 2, "mode" : 4}], "name" : ""}, {"primitives" : [{"attributes" : {"POSITION" : 13, "TEXCOORD_0" : 14, "NORMAL" : 15}, "indices" : 12, "material" : 3, "mode" : 4}], "name" : ""}, {"primitives" : [{"attributes" : {"POSITION" : 17, "TEXCOORD_0" : 18, "NORMAL" : 19}, "indices" : 16, "material" : 4, "mode" : 4}], "name" : ""}, {"primitives" : [{"attributes" : {"POSITION" : 21, "TEXCOORD_0" : 22, "NORMAL" : 23}, "indices" : 20, "material" : 5, "mode" : 4}], "name" : ""}, {"primitives" : [{"attributes" : {"POSITION" : 25, "TEXCOORD_0" : 26, "NORMAL" : 27}, "indices" : 24, "material" : 6, "mode" : 4}], "name" : ""}], "nodes" : [{"mesh" : 0, "name" : "polySurface29 polySurface14 polySurface1"}, {"mesh" : 1, "name" : "polySurface1 polySurface15"}, {"mesh" : 2, "name" : "polySurface1 polySurface19"}, {"mesh" : 3, "name" : "polySurface1 polySurface21"}, {"mesh" : 4, "name" : "polySurface1 polySurface24"}, {"mesh" : 5, "name" : "polySurface1 polySurface23"}, {"mesh" : 6, "name" : "polySurface1 polySurface22"}], "scene" : 0, "scenes" : [{"nodes" : [0, 1, 2, 3, 4, 5, 6]}]}