{"accessors" : [{"bufferView" : 0, "byteOffset" : 0, "componentType" : 5123, "count" : 6240, "type" : "SCALAR", "max" : [5197], "min" : [0]}, {"bufferView" : 1, "byteOffset" : 0, "componentType" : 5126, "count" : 5198, "type" : "VEC3", "max" : [41.601810455322266, 21.72193717956543, 22.40447235107422], "min" : [33.59806442260742, 14.79292106628418, 10.968541145324707], "name" : "POSITION"}, {"bufferView" : 1, "byteOffset" : 12, "componentType" : 5126, "count" : 5198, "type" : "VEC2", "max" : [1, -0], "min" : [0, -1], "name" : "TEXCOORD_0"}, {"bufferView" : 1, "byteOffset" : 20, "componentType" : 5126, "count" : 5198, "type" : "VEC3", "max" : [0.9986959099769592, 0.9990203976631165, 0.9940976500511169], "min" : [-0.9997561573982239, -0.998422384262085, -0.9969831109046936], "name" : "NORMAL"}, {"bufferView" : 0, "byteOffset" : 12480, "componentType" : 5123, "count" : 6240, "type" : "SCALAR", "max" : [5197], "min" : [0]}, {"bufferView" : 2, "byteOffset" : 0, "componentType" : 5126, "count" : 5198, "type" : "VEC3", "max" : [1.9997990131378174, 21.72193717956543, -36.61947250366211], "min" : [-9.77402114868164, 14.79292106628418, -42.22258758544922], "name" : "POSITION"}, {"bufferView" : 2, "byteOffset" : 12, "componentType" : 5126, "count" : 5198, "type" : "VEC2", "max" : [1, -0], "min" : [0, -1], "name" : "TEXCOORD_0"}, {"bufferView" : 2, "byteOffset" : 20, "componentType" : 5126, "count" : 5198, "type" : "VEC3", "max" : [0.9954236745834351, 0.9990203976631165, 0.999894917011261], "min" : [-0.9965071082115173, -0.9984224438667297, -0.9998719692230225], "name" : "NORMAL"}, {"bufferView" : 0, "byteOffset" : 24960, "componentType" : 5123, "count" : 6240, "type" : "SCALAR", "max" : [5197], "min" : [0]}, {"bufferView" : 3, "byteOffset" : 0, "componentType" : 5126, "count" : 5198, "type" : "VEC3", "max" : [26.881982803344727, 33.81602096557617, 45.879642486572266], "min" : [16.342548370361328, 26.887004852294922, 36.08418655395508], "name" : "POSITION"}, {"bufferView" : 3, "byteOffset" : 12, "componentType" : 5126, "count" : 5198, "type" : "VEC2", "max" : [1, -0], "min" : [0, -1], "name" : "TEXCOORD_0"}, {"bufferView" : 3, "byteOffset" : 20, "componentType" : 5126, "count" : 5198, "type" : "VEC3", "max" : [0.9954107999801636, 0.9990203976631165, 0.9958363175392151], "min" : [-0.9940280914306641, -0.998422384262085, -0.9989766478538513], "name" : "NORMAL"}, {"bufferView" : 0, "byteOffset" : 37440, "componentType" : 5123, "count" : 6240, "type" : "SCALAR", "max" : [5197], "min" : [0]}, {"bufferView" : 4, "byteOffset" : 0, "componentType" : 5126, "count" : 5198, "type" : "VEC3", "max" : [-14.494061470031738, 33.81602096557617, -30.052446365356445], "min" : [-25.22810935974121, 26.887004852294922, -39.57318115234375], "name" : "POSITION"}, {"bufferView" : 4, "byteOffset" : 12, "componentType" : 5126, "count" : 5198, "type" : "VEC2", "max" : [1, -0], "min" : [0, -1], "name" : "TEXCOORD_0"}, {"bufferView" : 4, "byteOffset" : 20, "componentType" : 5126, "count" : 5198, "type" : "VEC3", "max" : [0.9927933216094971, 0.9990204572677612, 0.9964537620544434], "min" : [-0.9923627376556396, -0.9984224438667297, -0.9931122064590454], "name" : "NORMAL"}, {"bufferView" : 0, "byteOffset" : 49920, "componentType" : 5123, "count" : 6240, "type" : "SCALAR", "max" : [5197], "min" : [0]}, {"bufferView" : 5, "byteOffset" : 0, "componentType" : 5126, "count" : 5198, "type" : "VEC3", "max" : [-40.01953887939453, 21.72193717956543, -29.851619720458984], "min" : [-52.67397689819336, 14.79292106628418, -40.68523025512695], "name" : "POSITION"}, {"bufferView" : 5, "byteOffset" : 12, "componentType" : 5126, "count" : 5198, "type" : "VEC2", "max" : [1, -0], "min" : [0, -1], "name" : "TEXCOORD_0"}, {"bufferView" : 5, "byteOffset" : 20, "componentType" : 5126, "count" : 5198, "type" : "VEC3", "max" : [0.9918898344039917, 0.9990286827087402, 0.9985876083374023], "min" : [-0.9971398711204529, -0.9984333515167236, -0.9977388978004456], "name" : "NORMAL"}, {"bufferView" : 0, "byteOffset" : 62400, "componentType" : 5123, "count" : 6240, "type" : "SCALAR", "max" : [5197], "min" : [0]}, {"bufferView" : 6, "byteOffset" : 0, "componentType" : 5126, "count" : 5198, "type" : "VEC3", "max" : [-22.86599349975586, 21.72193717956543, 45.193729400634766], "min" : [-36.37633514404297, 14.79292106628418, 35.735172271728516], "name" : "POSITION"}, {"bufferView" : 6, "byteOffset" : 12, "componentType" : 5126, "count" : 5198, "type" : "VEC2", "max" : [1, -0], "min" : [0, -1], "name" : "TEXCOORD_0"}, {"bufferView" : 6, "byteOffset" : 20, "componentType" : 5126, "count" : 5198, "type" : "VEC3", "max" : [0.9947876930236816, 0.9990286827087402, 0.9994722604751587], "min" : [-0.9947209358215332, -0.9984333515167236, -0.9919061064720154], "name" : "NORMAL"}], "asset" : {"generator" : "Aspose.3D 21.11", "version" : "2.0"}, "buffers" : [{"uri" : "data:application/octet-stream;base64,", "byteLength" : 1272988}], "bufferViews" : [{"buffer" : 0, "byteOffset" : 0, "byteLength" : 74880, "target" : 34963}, {"buffer" : 0, "byteOffset" : 74884, "byteLength" : 199680, "byteStride" : 32, "target" : 34962}, {"buffer" : 0, "byteOffset" : 274568, "byteLength" : 199680, "byteStride" : 32, "target" : 34962}, {"buffer" : 0, "byteOffset" : 474252, "byteLength" : 199680, "byteStride" : 32, "target" : 34962}, {"buffer" : 0, "byteOffset" : 673936, "byteLength" : 199680, "byteStride" : 32, "target" : 34962}, {"buffer" : 0, "byteOffset" : 873620, "byteLength" : 199680, "byteStride" : 32, "target" : 34962}, {"buffer" : 0, "byteOffset" : 1073304, "byteLength" : 199680, "byteStride" : 32, "target" : 34962}], "materials" : [{"name" : "", "pbrMetallicRoughness" : {"baseColorFactor" : [1, 1, 1, 1], "metallicFactor" : 0, "roughnessFactor" : 0}, "emissiveFactor" : [0, 0, 0], "alphaMode" : "OPAQUE", "doubleSided" : false}, {"name" : "", "pbrMetallicRoughness" : {"baseColorFactor" : [1, 1, 1, 1], "metallicFactor" : 0, "roughnessFactor" : 0}, "emissiveFactor" : [0, 0, 0], "alphaMode" : "OPAQUE", "doubleSided" : false}, {"name" : "", "pbrMetallicRoughness" : {"baseColorFactor" : [1, 1, 1, 1], "metallicFactor" : 0, "roughnessFactor" : 0}, "emissiveFactor" : [0, 0, 0], "alphaMode" : "OPAQUE", "doubleSided" : false}, {"name" : "", "pbrMetallicRoughness" : {"baseColorFactor" : [1, 1, 1, 1], "metallicFactor" : 0, "roughnessFactor" : 0}, "emissiveFactor" : [0, 0, 0], "alphaMode" : "OPAQUE", "doubleSided" : false}, {"name" : "", "pbrMetallicRoughness" : {"baseColorFactor" : [1, 1, 1, 1], "metallicFactor" : 0, "roughnessFactor" : 0}, "emissiveFactor" : [0, 0, 0], "alphaMode" : "OPAQUE", "doubleSided" : false}, {"name" : "", "pbrMetallicRoughness" : {"baseColorFactor" : [1, 1, 1, 1], "metallicFactor" : 0, "roughnessFactor" : 0}, "emissiveFactor" : [0, 0, 0], "alphaMode" : "OPAQUE", "doubleSided" : false}], "meshes" : [{"primitives" : [{"attributes" : {"POSITION" : 1, "TEXCOORD_0" : 2, "NORMAL" : 3}, "indices" : 0, "material" : 0, "mode" : 4}], "name" : ""}, {"primitives" : [{"attributes" : {"POSITION" : 5, "TEXCOORD_0" : 6, "NORMAL" : 7}, "indices" : 4, "material" : 1, "mode" : 4}], "name" : ""}, {"primitives" : [{"attributes" : {"POSITION" : 9, "TEXCOORD_0" : 10, "NORMAL" : 11}, "indices" : 8, "material" : 2, "mode" : 4}], "name" : ""}, {"primitives" : [{"attributes" : {"POSITION" : 13, "TEXCOORD_0" : 14, "NORMAL" : 15}, "indices" : 12, "material" : 3, "mode" : 4}], "name" : ""}, {"primitives" : [{"attributes" : {"POSITION" : 17, "TEXCOORD_0" : 18, "NORMAL" : 19}, "indices" : 16, "material" : 4, "mode" : 4}], "name" : ""}, {"primitives" : [{"attributes" : {"POSITION" : 21, "TEXCOORD_0" : 22, "NORMAL" : 23}, "indices" : 20, "material" : 5, "mode" : 4}], "name" : ""}], "nodes" : [{"mesh" : 0, "name" : "polySurface13nubes4"}, {"mesh" : 1, "name" : "Nube:polySurface13nubes"}, {"mesh" : 2, "name" : "polySurface13nubes3"}, {"mesh" : 3, "name" : "polySurface13nubes1"}, {"mesh" : 4, "name" : "polySurface13nubes"}, {"mesh" : 5, "name" : "polySurface13nubes2"}], "scene" : 0, "scenes" : [{"nodes" : [0, 1, 2, 3, 4, 5]}]}